<svg width="69" height="18" viewBox="0 0 69 18" fill="none" xmlns="http://www.w3.org/2000/svg">
<path d="M33.5469 15H32.416V11.0566H28.1152V15H26.9902V6.46875H28.1152V10.1367H32.416V6.46875H33.5469V15ZM35.0879 11.7715C35.0879 11.1504 35.209 10.5918 35.4512 10.0957C35.6973 9.59961 36.0371 9.2168 36.4707 8.94727C36.9082 8.67773 37.4062 8.54297 37.9648 8.54297C38.8281 8.54297 39.5254 8.8418 40.0566 9.43945C40.5918 10.0371 40.8594 10.832 40.8594 11.8242V11.9004C40.8594 12.5176 40.7402 13.0723 40.502 13.5645C40.2676 14.0527 39.9297 14.4336 39.4883 14.707C39.0508 14.9805 38.5469 15.1172 37.9766 15.1172C37.1172 15.1172 36.4199 14.8184 35.8848 14.2207C35.3535 13.623 35.0879 12.832 35.0879 11.8477V11.7715ZM36.1777 11.9004C36.1777 12.6035 36.3398 13.168 36.6641 13.5938C36.9922 14.0195 37.4297 14.2324 37.9766 14.2324C38.5273 14.2324 38.9648 14.0176 39.2891 13.5879C39.6133 13.1543 39.7754 12.5488 39.7754 11.7715C39.7754 11.0762 39.6094 10.5137 39.2773 10.084C38.9492 9.65039 38.5117 9.43359 37.9648 9.43359C37.4297 9.43359 36.998 9.64648 36.6699 10.0723C36.3418 10.498 36.1777 11.1074 36.1777 11.9004ZM45.9102 13.3184C45.9102 13.0254 45.7988 12.7988 45.5762 12.6387C45.3574 12.4746 44.9727 12.334 44.4219 12.2168C43.875 12.0996 43.4395 11.959 43.1152 11.7949C42.7949 11.6309 42.5566 11.4355 42.4004 11.209C42.248 10.9824 42.1719 10.7129 42.1719 10.4004C42.1719 9.88086 42.3906 9.44141 42.8281 9.08203C43.2695 8.72266 43.832 8.54297 44.5156 8.54297C45.2344 8.54297 45.8164 8.72852 46.2617 9.09961C46.7109 9.4707 46.9355 9.94531 46.9355 10.5234H45.8457C45.8457 10.2266 45.7188 9.9707 45.4648 9.75586C45.2148 9.54102 44.8984 9.43359 44.5156 9.43359C44.1211 9.43359 43.8125 9.51953 43.5898 9.69141C43.3672 9.86328 43.2559 10.0879 43.2559 10.3652C43.2559 10.627 43.3594 10.8242 43.5664 10.957C43.7734 11.0898 44.1465 11.2168 44.6855 11.3379C45.2285 11.459 45.668 11.6035 46.0039 11.7715C46.3398 11.9395 46.5879 12.1426 46.748 12.3809C46.9121 12.6152 46.9941 12.9023 46.9941 13.2422C46.9941 13.8086 46.7676 14.2637 46.3145 14.6074C45.8613 14.9473 45.2734 15.1172 44.5508 15.1172C44.043 15.1172 43.5938 15.0273 43.2031 14.8477C42.8125 14.668 42.5059 14.418 42.2832 14.0977C42.0645 13.7734 41.9551 13.4238 41.9551 13.0488H43.0391C43.0586 13.4121 43.2031 13.7012 43.4727 13.916C43.7461 14.127 44.1055 14.2324 44.5508 14.2324C44.9609 14.2324 45.2891 14.1504 45.5352 13.9863C45.7852 13.8184 45.9102 13.5957 45.9102 13.3184ZM49.877 7.125V8.66016H51.0605V9.49805H49.877V13.4297C49.877 13.6836 49.9297 13.875 50.0352 14.0039C50.1406 14.1289 50.3203 14.1914 50.5742 14.1914C50.6992 14.1914 50.8711 14.168 51.0898 14.1211V15C50.8047 15.0781 50.5273 15.1172 50.2578 15.1172C49.7734 15.1172 49.4082 14.9707 49.1621 14.6777C48.916 14.3848 48.793 13.9688 48.793 13.4297V9.49805H47.6387V8.66016H48.793V7.125H49.877ZM53.9551 6.46875L56.7441 13.4297L59.5332 6.46875H60.9922V15H59.8672V11.6777L59.9727 8.0918L57.1719 15H56.3105L53.5156 8.10938L53.627 11.6777V15H52.502V6.46875H53.9551ZM64.1855 15H63.0605V6.46875H64.1855V15ZM66.1016 14.4316C66.1016 14.2441 66.1562 14.0879 66.2656 13.9629C66.3789 13.8379 66.5469 13.7754 66.7695 13.7754C66.9922 13.7754 67.1602 13.8379 67.2734 13.9629C67.3906 14.0879 67.4492 14.2441 67.4492 14.4316C67.4492 14.6113 67.3906 14.7617 67.2734 14.8828C67.1602 15.0039 66.9922 15.0645 66.7695 15.0645C66.5469 15.0645 66.3789 15.0039 66.2656 14.8828C66.1562 14.7617 66.1016 14.6113 66.1016 14.4316Z" fill="white"/>
<path d="M24 18V12H6V18H24ZM21 14C21.553 14 22 14.448 22 15C22 15.552 21.553 16 21 16C20.448 16 20 15.552 20 15C20 14.448 20.448 14 21 14ZM13.194 14H14.469L13.605 16H12.331L13.194 14ZM11.053 14H12.328L11.465 16H10.19L11.053 14ZM8.863 14H10.138L9.275 16H8L8.863 14ZM4 14.941C1.747 14.651 0 12.747 0 10.417C0 8.165 1.626 6.296 3.767 5.911C3.944 2.617 6.662 0 10 0C13.338 0 16.056 2.617 16.233 5.911C18.238 6.272 19.774 7.94 19.962 10H17.971C17.692 7.895 15.297 7.667 14.321 7.599C14.438 5.641 13.766 2 10 2C5.562 2 5.641 6.75 5.679 7.599C4.734 7.562 2 7.94 2 10.417C2 11.64 2.856 12.662 4 12.928V14.941Z" fill="white"/>
</svg>
